HIERARCHY
ROOT Hips
{
	OFFSET 0.00000 0.00000 0.00000
	CHANNELS 6 Xposition Yposition Zposition Zrotation Yrotation Xrotation 
	JOINT LHipJoint
	{
		OFFSET 0 0 0
		CHANNELS 3 Zrotation Yrotation Xrotation
		JOINT LeftHip
		{
			OFFSET 1.62964 -1.40469 0.78906
			CHANNELS 3 Zrotation Yrotation Xrotation
			JOINT LeftKnee
			{
				OFFSET 2.29640 -6.30932 0.00000
				CHANNELS 3 Zrotation Yrotation Xrotation
				JOINT LeftAnkle
				{
					OFFSET 2.29451 -6.30412 0.00000
					CHANNELS 3 Zrotation Yrotation Xrotation
					JOINT LeftToe
					{
						OFFSET 0.03611 -0.09921 1.56387
						CHANNELS 3 Zrotation Yrotation Xrotation
						End Site
						{
							OFFSET 0.00000 -0.00000 0.80291
						}
					}
				}
			}
		}
	}
	JOINT RHipJoint
	{
		OFFSET 0 0 0
		CHANNELS 3 Zrotation Yrotation Xrotation
		JOINT RightHip
		{
			OFFSET -1.73712 -1.40469 0.78906
			CHANNELS 3 Zrotation Yrotation Xrotation
			JOINT RightKnee
			{
				OFFSET -2.28137 -6.26801 0.00000
				CHANNELS 3 Zrotation Yrotation Xrotation
				JOINT RightAnkle
				{
					OFFSET -2.28681 -6.28298 0.00000
					CHANNELS 3 Zrotation Yrotation Xrotation
					JOINT RightToe
					{
						OFFSET -0.15927 -0.43759 1.61103
						CHANNELS 3 Zrotation Yrotation Xrotation
						End Site
						{
							OFFSET -0.00000 -0.00000 0.84630
						}
					}
				}
			}
		}
	}
	JOINT lowerback
	{
		OFFSET 0 0 0
		CHANNELS 3 Zrotation Yrotation Xrotation
		JOINT Chest
		{
			OFFSET -0.04227 2.04338 -0.00225
			CHANNELS 3 Zrotation Yrotation Xrotation
			JOINT Chest2
			{
				OFFSET -0.02148 2.04482 -0.04273
				CHANNELS 3 Zrotation Yrotation Xrotation
				JOINT lowerneck
				{
					OFFSET 0 0 0
					CHANNELS 3 Zrotation Yrotation Xrotation
					JOINT Neck
					{
						OFFSET 0.09180 1.44629 0.19359
						CHANNELS 3 Zrotation Yrotation Xrotation
						JOINT Head
						{
							OFFSET 0.00887 1.40645 0.14750
							CHANNELS 3 Zrotation Yrotation Xrotation
							End Site
							{
								OFFSET -0.00669 1.50671 0.03707
							}
						}
					}
				}
				JOINT LeftCollar
				{
					OFFSET 0 0 0
					CHANNELS 3 Zrotation Yrotation Xrotation
					JOINT LeftShoulder
					{
						OFFSET 2.17674 1.86763 -0.06520
CHANNELS 3 Zrotation Xrotation Yrotation
						JOINT LeftElbow
						{
OFFSET 0 -4.657760 0.000000
CHANNELS 3 Zrotation Xrotation Yrotation
							JOINT LeftWrist
							{
OFFSET 0 -3.555390 0.000000
CHANNELS 3 Zrotation Xrotation Yrotation
								JOINT lhand
								{
									OFFSET 0 0 0
CHANNELS 3 Zrotation Xrotation Yrotation
									JOINT LFingers
									{
OFFSET 0 -0.707260 0.000000
CHANNELS 3 Zrotation Xrotation Yrotation
										End Site
										{
OFFSET 0 -0.570220 0.000000
										}
									}
								}
								JOINT LThumb
								{
OFFSET 0 0.000000 0.000000
CHANNELS 3 Zrotation Xrotation Yrotation
									End Site
									{
OFFSET 0 -0.578920 0.578920
									}
								}
							}
						}
					}
				}
				JOINT RightCollar
				{
					OFFSET 0 0 0
					CHANNELS 3 Zrotation Yrotation Xrotation
					JOINT RightShoulder
					{
						OFFSET -2.80694 1.55459 -0.32496
CHANNELS 3 Zrotation Xrotation Yrotation
						JOINT RightElbow
						{
OFFSET 0 -4.719250 -0.000000
CHANNELS 3 Zrotation Xrotation Yrotation
							JOINT RightWrist
							{
OFFSET 0 -3.569900 0.000000
CHANNELS 3 Zrotation Xrotation Yrotation
								JOINT rhand
								{
									OFFSET 0 0 0
CHANNELS 3 Zrotation Xrotation Yrotation
									JOINT RFingers
									{
OFFSET 0 -0.507760 0.000000
CHANNELS 3 Zrotation Xrotation Yrotation
										End Site
										{
OFFSET 0 -0.409370 0.000000
										}
									}
								}
								JOINT RThumb
								{
OFFSET 0 0.000000 0.000000
CHANNELS 3 Zrotation Xrotation Yrotation
									End Site
									{
OFFSET 0 -0.415620 0.415620
									}
								}
							}
						}
					}
				}
			}
		}
	}
}
MOTION
Frames: 7
Frame Time: 0.008333333333333333
-0.921159 17.565908 18.751823 182.908907 -9.993927 -163.670244 0.000000 0.000000 0.000000 -18.270373 -20.683559 -6.791862 1.674240 8.151697 23.175854 0.931023 -12.119528 -18.009898 0.009956 -0.624261 -1.715615 0.000000 0.000000 0.000000 -0.002430 13.925580 -47.482513 -1.660138 -8.115991 23.068664 -0.196128 -8.383366 -15.196139 -0.688795 5.305857 -14.782992 -7.981813 -3.788158 -23.460275 1.073703 -3.042868 1.414024 4.704145 -2.136250 15.423809 -1.575980 -1.189888 4.518955 8.050115 -3.385673 11.250654 2.873951 -1.956459 3.044182 0.000000 0.000000 0.000000 11.113285 4.730859 -21.211135 13.456728 -21.952734 2.621538 22.875255 -2.948404 11.554322 0.000000 0.000000 0.000000 -7.125000 0.000000 0.000000 -2.990842 17.479463 -1.956967 0.000000 0.000000 0.000000 -0.441051 10.218305 5.899857 -18.040453 -28.208953 -4.568409 -15.228751 11.080820 53.826502 0.000000 0.000000 0.000000 7.125000 0.000000 0.000000 69.058221 77.191853 -56.354928
-0.895891 17.551706 18.674341 182.966222 -10.274775 -163.939285 0.000000 0.000000 0.000000 -18.204555 -20.615803 -6.230691 1.685201 8.176995 23.253069 0.944065 -12.204033 -18.136385 0.016632 -0.799451 -2.197314 0.000000 0.000000 0.000000 -0.803336 14.017157 -47.088779 -1.478161 -7.679370 21.745798 -0.082757 -9.156302 -14.425781 -0.783053 5.642890 -15.753323 -8.122593 -3.854342 -23.457217 1.097322 -3.091766 1.440439 4.793854 -2.172909 15.473170 -1.517182 -1.183534 4.940882 8.065427 -3.304059 10.734326 2.867820 -1.921667 2.786305 0.000000 0.000000 0.000000 11.282892 4.777890 -21.347328 13.524783 -22.051186 2.647097 22.954962 -3.232908 11.600336 0.000000 0.000000 0.000000 -7.125000 0.000000 0.000000 -2.936956 17.422466 -1.925421 0.000000 0.000000 0.000000 -0.304898 10.482709 5.484747 -17.900896 -28.030016 -4.502638 -15.156340 11.386554 53.774840 0.000000 0.000000 0.000000 7.125000 0.000000 0.000000 68.852612 77.151959 -56.120437
-0.869237 17.537968 18.595926 183.071624 -10.630744 -164.216120 0.000000 0.000000 0.000000 -18.049998 -20.543713 -5.708944 1.701781 8.215085 23.369341 0.980274 -12.179054 -18.421528 0.067323 -1.630808 -4.487189 0.000000 0.000000 0.000000 -1.614049 14.213111 -46.569141 -1.309683 -7.246814 20.449639 0.049896 -10.141907 -13.610366 -0.949140 6.200467 -17.368389 -8.161682 -3.942334 -23.431587 1.102147 -3.196802 1.477842 4.782250 -2.224957 15.523932 -1.641030 -1.412251 4.551173 8.314600 -3.704748 11.112708 2.972583 -2.114886 3.021201 0.000000 0.000000 0.000000 11.558793 4.931079 -21.669827 13.742101 -22.364615 2.729298 22.793069 -3.639294 11.246489 0.000000 0.000000 0.000000 -7.125000 0.000000 0.000000 -3.035845 17.818161 -1.963752 0.000000 0.000000 0.000000 -0.142927 10.628206 5.036825 -17.652527 -27.709678 -4.386566 -14.904434 11.411019 52.929983 0.000000 0.000000 0.000000 7.125000 0.000000 0.000000 65.365144 76.826050 -52.564212
-0.842389 17.523938 18.519935 183.307117 -10.930661 -164.483255 0.000000 0.000000 0.000000 -17.713738 -20.389569 -5.295144 1.717747 8.251549 23.480704 1.013237 -12.284807 -18.709136 0.115386 -2.185973 -6.020030 0.000000 0.000000 0.000000 -2.322176 14.538184 -46.097648 -1.160165 -6.836719 19.233146 0.190108 -11.126018 -12.614327 -1.131764 6.754166 -18.989936 -8.007495 -3.946412 -23.380779 1.094635 -3.250819 1.454296 4.666471 -2.233174 15.462914 -1.462311 -1.328162 4.709892 8.204763 -3.603905 11.225452 2.904565 -2.070480 3.015569 0.000000 0.000000 0.000000 11.871170 5.140132 -21.883078 13.920341 -22.620739 2.797447 22.605269 -3.760873 11.059222 0.000000 0.000000 0.000000 -7.125000 0.000000 0.000000 -3.160295 18.036421 -2.029528 0.000000 0.000000 0.000000 0.118844 10.884007 4.372305 -17.432973 -27.424969 -4.284931 -14.782382 11.488831 51.968829 0.000000 0.000000 0.000000 7.125000 0.000000 0.000000 61.509941 76.466982 -48.700723
-0.813410 17.509738 18.442926 183.607397 -11.170252 -164.731693 0.000000 0.000000 0.000000 -17.300418 -20.261983 -4.887880 1.728804 8.276794 23.557929 1.025824 -12.449823 -18.847534 0.123491 -2.265707 -6.240550 0.000000 0.000000 0.000000 -2.833369 14.760987 -45.726810 -1.024967 -6.439704 18.065965 0.319084 -12.060850 -11.702531 -1.212738 6.985684 -19.672853 -7.864067 -3.976393 -23.416526 1.161533 -3.336669 1.461470 4.628985 -2.264323 15.500659 -1.383324 -1.134354 5.298099 8.070016 -3.254093 10.724918 2.846986 -1.910227 2.711537 0.000000 0.000000 0.000000 12.039716 5.286737 -21.937568 14.065566 -22.828337 2.853501 22.699133 -3.939267 11.160429 0.000000 0.000000 0.000000 -7.125000 0.000000 0.000000 -3.098172 17.919293 -1.997574 0.000000 0.000000 0.000000 0.232078 11.107745 4.007928 -17.295933 -27.246211 -4.221920 -14.832166 11.606955 51.646111 0.000000 0.000000 0.000000 7.125000 0.000000 0.000000 60.209118 76.369479 -47.438574
-0.780689 17.493935 18.361785 183.790272 -11.439413 -164.845447 0.000000 0.000000 0.000000 -16.951285 -20.212516 -4.586745 1.743419 8.309988 23.659567 1.004592 -12.797044 -18.768771 0.065752 -1.634140 -4.495901 0.000000 0.000000 0.000000 -3.602403 15.155036 -45.362646 -0.891205 -6.016856 16.833356 0.461945 -13.356234 -11.345258 -1.123581 6.731734 -18.923454 -7.899613 -4.069023 -23.597430 1.209875 -3.440660 1.482306 4.660141 -2.321424 15.654134 -1.424050 -0.930944 5.367197 8.021043 -2.959604 10.668143 2.839980 -1.765626 2.662604 0.000000 0.000000 0.000000 12.240364 5.306208 -21.987331 14.208966 -23.032663 2.909416 22.713138 -4.010532 10.776980 0.000000 0.000000 0.000000 -7.125000 0.000000 0.000000 -3.073771 18.330380 -1.953976 0.000000 0.000000 0.000000 0.360415 11.343900 3.912813 -17.339312 -27.302812 -4.241818 -15.080553 11.911399 52.403107 0.000000 0.000000 0.000000 7.125000 0.000000 0.000000 63.106334 76.735359 -50.411825
-0.745861 17.478311 18.283288 183.942865 -11.636341 -164.944472 0.000000 0.000000 0.000000 -16.591801 -20.047001 -4.347341 1.754881 8.335684 23.738510 0.961180 -13.258964 -18.554597 0.008149 -0.428664 -1.177944 0.000000 0.000000 0.000000 -4.419920 15.679554 -45.144961 -0.798522 -5.702870 15.925024 0.603414 -14.663885 -11.317813 -0.938444 6.167587 -17.272354 -7.955557 -4.116636 -23.675839 1.232344 -3.489376 1.434895 4.697933 -2.349173 15.655143 -1.279663 -1.207559 4.819697 8.242902 -3.526920 11.595318 2.888390 -2.042331 3.115862 0.000000 0.000000 0.000000 12.454678 5.396102 -21.973828 14.328282 -23.202104 2.956236 22.573199 -3.887496 10.694630 0.000000 0.000000 0.000000 -7.125000 0.000000 0.000000 -3.169615 18.431004 -2.007924 0.000000 0.000000 0.000000 0.576617 11.727433 3.655909 -17.424700 -27.414244 -4.281118 -15.290128 12.276924 53.363459 0.000000 0.000000 0.000000 7.125000 0.000000 0.000000 67.035823 77.104106 -54.384599
